# xmcd CD database file
#
# Track frame offsets:
#	150
#	28130
#	51270
#	79342
#	116512
#	142020
#	168662
#	196584
#	220144
#
# Disc length: 3176 seconds
#
# Revision: 0
# Processed by: cddbd v1.5.2PL0 Copyright (c) Steve Scherf et al.
# Submitted via: CDex 1.78
#
DISCID=800c6609
DTITLE=Karin Hammar Fab 4 - Cricles
DYEAR=2017
DGENRE=Jazz
TTITLE0=Circles
TTITLE1=Mammakech
TTITLE2=Bossa for Ella
TTITLE3=Choose Your Issues - Hildegunn
TTITLE4=Praia de Buzios
TTITLE5=New O
TTITLE6=Four Women
TTITLE7=Habbit Rabbit
TTITLE8=Uphill
EXTD=YEAR: 2017
EXTT0=
EXTT1=
EXTT2=
EXTT3=
EXTT4=
EXTT5=
EXTT6=
EXTT7=
EXTT8=
PLAYORDER=
